<?xml version="1.0" encoding="UTF-8"?>
<svg id="Livello_1" xmlns="http://www.w3.org/2000/svg" version="1.1" viewBox="0 0 3320.8 523.9">
  <!-- Generator: Adobe Illustrator 29.3.1, SVG Export Plug-In . SVG Version: 2.1.0 Build 151)  -->
  <defs>
    <style>
      .st0 {
        fill-rule: evenodd;
      }

      .st0, .st1 {
        fill: #39bfad;
      }

      .st2 {
        fill: #8c734b;
      }
    </style>
  </defs>
  <path class="st0" d="M596.3,27.9l30.5,122.9c4.4,14.6,6.1,29.2,9.2,43.8h.7c2.7-14.9,3.7-29.5,7.8-44.5l30.9-122.2h52.9l-70.9,255.9h-41.4l-74-255.9h54.3ZM808.7,27.9v255.9h102.5v-47.5h-51.9v-57.7h45.1v-47.5h-45.1v-55.7h51.3V27.9h-101.9ZM988.1,27.9v47.5h39.7v208.4h50.6V75.4h40V27.9h-130.3,0ZM1200.7,283.8V27.9h50.9c32.2,0,89.9,3.4,89.9,73.3s-11.2,52.3-36.3,66.2l44.5,116.4h-53.3l-44.5-118.1h-.7v118.1h-50.6,0ZM1251.3,137.9l8.8.3c23.1,0,32.2-15.6,32.2-36.7s-8.8-33.3-34.3-31.9h-6.8v68.2h.1ZM1610.9,155.8c0,96.1-44.8,132-89.9,132s-89.9-36-89.9-132,44.8-132,89.9-132,89.9,36,89.9,132M1521,241c33.6,0,36-64.8,36-85.2s-2.4-85.2-36-85.2-36,62.5-36,85.2,2.4,85.2,36,85.2M1697.4,27.9v255.9h50.6v-117.4l-.3-10.5-2.4-25.8.7-.7,62.5,154.4h47.9V27.9h-50.6v115.1c0,13.2,1,26.5,4.1,38.7l-.7.7-63.1-154.4h-48.7ZM2048.9,27.9l61.4,255.9h-54l-9.5-43.1h-51.2l-9.2,43.1h-50.2l59.4-255.9h53.3ZM2026.5,132.4l-5.8-38.7h-.7l-5.4,38.7-10.9,68.2h35.6l-12.9-68.2h0ZM2156.2,27.9l74,255.9h41.4l70.9-255.9h-52.9l-30.9,122.2c-4.1,14.9-5.1,29.5-7.8,44.5h-.7c-3.1-14.6-4.8-29.2-9.2-43.8l-30.5-122.9h-54.3ZM2423,283.8h50.6V27.9h-50.6v255.9ZM2819.1,27.9v255.9h103.5v-47.5h-52.9V27.9h-50.6ZM3004.8,283.8h50.6V27.9h-50.6v255.9ZM3320.8,155.8c0,96.1-44.8,132-89.9,132s-89.9-36-89.9-132,44.8-132,89.9-132,89.9,36,89.9,132M3230.9,241c33.6,0,36-64.8,36-85.2s-2.4-85.2-36-85.2-36,62.5-36,85.2,2.4,85.2,36,85.2M2654.5,184h16.7v56.6c-1.5.3-3.1.4-4.9.4-37.3,0-39-58.7-39-85.2s11.9-80.6,47.6-81.8c13.7-.3,23.1,1.8,28.6,3.6v-45.5c-10.2-5.1-22-8.1-38.8-8.2-62-.5-91.3,74.3-91.3,133.4s22.4,130.7,91.3,130.7,33-1.1,49.6-6.3v-135.5h-59.8v38-.2Z"/>
  <path class="st1" d="M0,0v344.3h450.3V0H0ZM400.8,291.7h-67.3v-97.2c0-41.3-33.5-74.8-74.8-74.8v171.9h-67.3c-78.4,0-142-63.6-142-142V52.4h67.3v97.2c0,41.3,33.5,74.8,74.8,74.8V52.5h67.3c78.4,0,142,63.6,142,142v97.2Z"/>
  <g>
    <path class="st2" d="M43.4,521.5h-12.9v-80.7H1v-11.3h71.9v11.3h-29.5v80.7Z"/>
    <path class="st2" d="M126.7,429.5h12.9v38.5h46.5v-38.5h13v92h-13v-42.1h-46.5v42.1h-12.9v-92Z"/>
    <path class="st2" d="M276,510.1h48.1v11.4h-61v-92h59v11.3h-46.2v27.6h43.4v11h-43.4v30.7h.1Z"/>
    <path class="st2" d="M456.9,429.5h31.7c13.9,0,28.9,5.7,28.9,23.3s-6.5,17.4-16.1,20v.3c11.8,1.4,20.4,9.5,20.4,22.4s-15.3,26.1-34.6,26.1h-30.3v-92h0ZM469.8,468.3h16.8c9.9,0,18.1-4.3,18.1-14.3s-7.9-13.8-20.2-13.8h-14.7v28.1h0ZM469.8,510.6h16.1c10.9,0,22.9-3.4,22.9-15.9s-7.7-15.5-21.7-15.5h-17.3v31.3h0Z"/>
    <path class="st2" d="M594.9,510.1h48.1v11.4h-61v-92h59v11.3h-46.2v27.6h43.4v11h-43.4v30.7h.1Z"/>
    <path class="st2" d="M705.5,521.5h-14.3l39.9-92h11.7l39.5,92h-14.6l-9.4-22.6h-43.7l-9.2,22.6h0ZM719.3,487.6h34.5l-17.2-43.2-17.3,43.2Z"/>
    <path class="st2" d="M835.1,487.4v-58h12.9v57.2c0,12.6,5.7,25.6,22.9,25.6s22.9-13,22.9-25.6v-57.2h12.9v58c0,18.9-11.4,36.4-35.8,36.4s-35.8-17.6-35.8-36.4Z"/>
    <path class="st2" d="M1002.2,521.5h-12.9v-80.7h-29.5v-11.3h71.9v11.3h-29.5v80.7Z"/>
    <path class="st2" d="M1121.4,521.5h-13v-39.8l-34.5-52.3h15.9l25.5,41.6,25.6-41.6h15l-34.5,52.3v39.8Z"/>
    <path class="st2" d="M1326.2,523.8c-28,0-48.6-20.2-48.6-48.5s20.7-48.2,48.6-48.2,48.9,19.5,48.9,48.2-20.8,48.5-48.9,48.5ZM1326.2,438.4c-21.2,0-34.7,16.8-34.7,36.9s13.7,36.9,34.7,36.9,35-16.4,35-36.9-13.5-36.9-35-36.9Z"/>
    <path class="st2" d="M1447.1,521.5h-12.9v-92h57.5v11.3h-44.6v28.6h41.7v11.1h-41.7v41.1h0Z"/>
    <path class="st2" d="M1623.8,429.5h31.7c13.9,0,28.9,5.7,28.9,23.3s-6.5,17.4-16.1,20v.3c11.8,1.4,20.4,9.5,20.4,22.4s-15.3,26.1-34.6,26.1h-30.3v-92h0ZM1636.7,468.3h16.8c9.9,0,18.1-4.3,18.1-14.3s-7.9-13.8-20.2-13.8h-14.7v28.1h0ZM1636.7,510.6h16.1c10.9,0,22.9-3.4,22.9-15.9s-7.7-15.5-21.7-15.5h-17.3v31.3h0Z"/>
    <path class="st2" d="M1761.7,510.1h48.1v11.4h-61v-92h59v11.3h-46.2v27.6h43.4v11h-43.4v30.7h0Z"/>
    <path class="st2" d="M1881.5,521.5h-12.9v-92h12.9v92Z"/>
    <path class="st2" d="M2010.3,503h.3v-73.6h12.9v92h-16.3l-48.6-75.1h-.3v75.1h-12.9v-92h16.8l48.1,73.6Z"/>
    <path class="st2" d="M2156.8,448.4c-5.5-6-14.4-10-25-10-21.6,0-35.1,16.8-35.1,36.9s13.5,36.9,35.5,36.9,16.1-1.7,21.5-4.5v-25.6h-20.4v-10.9h33.2v44.6c-9.6,5.2-21.1,8.1-34.6,8.1-28.7,0-49.1-20.2-49.1-48.5s21.1-48.2,49-48.2,26.5,4.7,34.1,12l-9,9.4v-.2Z"/>
    <path class="st2" d="M2304.2,429.5h31.6c23.5,0,49.7,13.4,49.7,46s-26.1,46-49.7,46h-31.6v-92ZM2317.1,510.2h16.1c22.2,0,38.5-12.7,38.5-34.7s-16.3-34.8-38.5-34.8h-16.1v69.6h0Z"/>
    <path class="st2" d="M2457.6,521.5h-12.9v-92h12.9v92Z"/>
    <path class="st2" d="M2534.4,521.5h-12.9v-92h57.5v11.3h-44.6v28.6h41.7v11.1h-41.7v41.1h0Z"/>
    <path class="st2" d="M2649.9,521.5h-12.9v-92h57.5v11.3h-44.6v28.6h41.7v11.1h-41.7v41.1h0Z"/>
    <path class="st2" d="M2765.3,510.1h48.1v11.4h-61v-92h59v11.3h-46.2v27.6h43.4v11h-43.4v30.7h0Z"/>
    <path class="st2" d="M2885.1,521.5h-12.9v-92h29.5c17.8,0,32.8,6.8,32.8,25.5s-9.2,22.1-22.4,24.3l25.7,42.3h-15.6l-23.4-41h-13.8v41h0ZM2885.1,469.8h14.8c12.1,0,21.6-3.8,21.6-14.8s-9.5-14.6-20.7-14.6h-15.7v29.4h0Z"/>
    <path class="st2" d="M3006.5,510.1h48.1v11.4h-61v-92h59v11.3h-46.2v27.6h43.4v11h-43.4v30.7h0Z"/>
    <path class="st2" d="M3178.2,503h.3v-73.6h12.9v92h-16.3l-48.6-75.1h-.3v75.1h-12.9v-92h16.8l48.1,73.6Z"/>
    <path class="st2" d="M3287.5,521.5h-12.9v-80.7h-29.5v-11.3h71.9v11.3h-29.5v80.7Z"/>
  </g>
</svg>